<?xml version="1.0" encoding="UTF-8"?>
<!DOCTYPE svg PUBLIC "-//W3C//DTD SVG 1.1//EN" "http://www.w3.org/Graphics/SVG/1.1/DTD/svg11.dtd">
<!-- Creator: CorelDRAW X7 -->
<svg xmlns="http://www.w3.org/2000/svg" xml:space="preserve" width="1.03263in" height="1.34078in" version="1.1" style="shape-rendering:geometricPrecision; text-rendering:geometricPrecision; image-rendering:optimizeQuality; fill-rule:evenodd; clip-rule:evenodd"
viewBox="0 0 222 288"
 xmlns:xlink="http://www.w3.org/1999/xlink">
 <defs>
  <style type="text/css">
   <![CDATA[
    .fil0 {fill:black}
   ]]>
  </style>
 </defs>
 <g id="Layer_x0020_1">
  <metadata id="CorelCorpID_0Corel-Layer"/>
  <g id="_3028632751312">
   <path class="fil0" d="M0 160c0,8 10,13 17,8 4,-3 14,-39 16,-46l6 -18c1,-5 0,-5 4,-5 4,0 1,6 0,13 -1,4 -2,8 -3,12l-11 49c-1,5 -2,8 -3,13 -4,19 -5,16 15,16l0 74c0,16 26,16 26,-1l0 -73 7 0 0 68c0,27 26,19 26,7l0 -75c20,0 18,5 11,-27 -2,-8 -4,-16 -6,-25 -1,-6 -10,-42 -10,-49 0,-2 1,-2 3,-2 3,0 4,9 6,15l10 32c1,3 2,5 4,7 5,6 17,6 17,-8 0,-6 -14,-55 -18,-62 -6,-11 -17,-18 -31,-18 -13,0 -36,-1 -46,3 -17,8 -18,19 -23,34 -1,4 -17,54 -17,58z"/>
   <path class="fil0" d="M125 167c0,6 7,14 11,18 3,3 8,6 12,8 2,1 4,1 5,2l0 76c0,9 1,17 12,17 4,0 9,-5 9,-9l0 -45 6 0 0 43c0,13 21,17 21,-3l0 -71c8,6 -2,30 13,30 7,0 9,-6 8,-13 -1,-6 0,-9 -3,-18 -12,-35 -38,-18 -59,-25 -11,-3 -13,-8 -17,-14 -6,-9 -18,-4 -18,4z"/>
   <path class="fil0" d="M42 27c0,40 56,40 57,2 1,-15 -12,-29 -28,-29 -15,0 -29,13 -29,27z"/>
   <path class="fil0" d="M154 148l0 3c0,12 10,22 22,22 8,0 13,-1 18,-6 7,-8 9,-19 4,-28 -4,-8 -12,-13 -21,-12 -7,0 -12,2 -16,6 -3,3 -7,9 -7,15z"/>
  </g>
 </g>
</svg>
