<?xml version="1.0" encoding="UTF-8"?>
<!DOCTYPE svg PUBLIC "-//W3C//DTD SVG 1.1//EN" "http://www.w3.org/Graphics/SVG/1.1/DTD/svg11.dtd">
<!-- Creator: CorelDRAW X7 -->
<svg xmlns="http://www.w3.org/2000/svg" xml:space="preserve" width="1.59999in" height="1.08149in" version="1.1" style="shape-rendering:geometricPrecision; text-rendering:geometricPrecision; image-rendering:optimizeQuality; fill-rule:evenodd; clip-rule:evenodd"
viewBox="0 0 2397 1620"
 xmlns:xlink="http://www.w3.org/1999/xlink">
 <defs>
  <style type="text/css">
   <![CDATA[
    .fil0 {fill:black}
   ]]>
  </style>
 </defs>
 <g id="Layer_x0020_1">
  <metadata id="CorelCorpID_0Corel-Layer"/>
  <g id="_3028771832256">
   <path class="fil0" d="M0 1331l0 289 1378 0c0,-235 25,-423 -123,-606 -68,-84 -173,-168 -281,-193 -76,113 -235,184 -379,140 -78,-25 -146,-74 -191,-140 -80,7 -216,111 -273,181 -35,43 -64,87 -88,142 -19,46 -43,125 -43,187z"/>
   <path class="fil0" d="M1293 951c18,27 36,47 54,77 17,29 32,57 46,88 68,152 50,338 50,504l954 0 0 -274c0,-66 -25,-139 -45,-185 -70,-160 -206,-273 -384,-315 -42,62 -132,115 -200,115 -91,0 -139,-8 -213,-71 -15,-12 -32,-25 -37,-44 -77,7 -167,67 -225,105z"/>
   <path class="fil0" d="M419 322c0,141 57,262 155,314 -5,58 -37,117 -75,160 71,105 288,129 375,0 -17,-25 -31,-40 -45,-70 -21,-42 -21,-71 -30,-90 22,-5 58,-39 72,-57 21,-28 36,-45 51,-79 58,-142 47,-307 -64,-422l-52 -43c-169,-111 -387,58 -387,287z"/>
   <path class="fil0" d="M1508 382c0,388 435,429 470,20 -37,-18 -92,-18 -180,-80 -38,-27 -108,-90 -120,-140 -13,10 -27,36 -38,52 -24,35 -56,69 -86,99 -20,20 -46,32 -46,49z"/>
   <path class="fil0" d="M2017 382c0,116 -24,133 -24,170l0 159 54 0 0 -314c0,-40 -14,-89 -28,-117 -9,-19 -15,-28 -25,-44l-33 -43c-7,-7 -12,-9 -19,-15 -84,-68 -126,-76 -239,-76 0,79 54,142 114,181 30,20 61,40 96,53 65,25 104,19 104,46z"/>
   <path class="fil0" d="M1533 711l95 0c-6,25 -14,48 -26,69 -22,40 -25,35 -39,56 49,74 184,114 284,59 43,-24 48,-35 76,-54 -23,-33 -61,-79 -65,-130l95 0 0 -90c-23,16 -21,25 -39,42 -99,91 -239,95 -340,2 -15,-14 -28,-35 -41,-44l0 90z"/>
   <path class="fil0" d="M1438 392l0 319 55 0c0,-112 9,-121 -14,-215 -14,-59 -11,-68 -11,-129 0,-21 9,-26 21,-35 85,-62 124,-130 169,-215 -50,1 -126,64 -150,95 -34,44 -70,102 -70,180z"/>
  </g>
 </g>
</svg>
