<?xml version="1.0" encoding="UTF-8"?>
<!DOCTYPE svg PUBLIC "-//W3C//DTD SVG 1.1//EN" "http://www.w3.org/Graphics/SVG/1.1/DTD/svg11.dtd">
<!-- Creator: CorelDRAW X7 -->
<svg xmlns="http://www.w3.org/2000/svg" xml:space="preserve" width="7.10957in" height="6.54769in" version="1.1" style="shape-rendering:geometricPrecision; text-rendering:geometricPrecision; image-rendering:optimizeQuality; fill-rule:evenodd; clip-rule:evenodd"
viewBox="0 0 3414 3144"
 xmlns:xlink="http://www.w3.org/1999/xlink">
 <defs>
  <style type="text/css">
   <![CDATA[
    .fil0 {fill:#0F1F3C}
    .fil1 {fill:#0F1F3C;fill-rule:nonzero}
   ]]>
  </style>
 </defs>
 <g id="Layer_x0020_1">
  <metadata id="CorelCorpID_0Corel-Layer"/>
  <g id="_2062177931584">
   <g>
    <path class="fil0" d="M2920 1234c0,-603 -489,-1091 -1091,-1091l44 44c204,205 319,482 319,772l0 1197 -493 0 857 988 858 -988 -494 0 0 -922z"/>
    <path class="fil0" d="M1000 2001c553,0 1001,-448 1001,-1001 0,-552 -448,-1000 -1001,-1000 -552,0 -1000,448 -1000,1000 0,553 448,1001 1000,1001zm0 -1715c394,0 715,320 715,714 0,394 -321,715 -715,715 -394,0 -714,-321 -714,-715 0,-394 320,-714 714,-714z"/>
    <path class="fil0" d="M286 2143l1143 0 0 286 -1143 0 0 -286zm0 429l1572 0 0 286 -1572 0 0 -286z"/>
   </g>
   <path class="fil1" d="M520 1236l0 -606 279 0c41,0 78,8 110,25 33,17 58,40 76,69 18,28 27,62 27,99 0,41 -9,76 -27,108 -18,31 -43,55 -76,73 -32,17 -69,26 -110,26l-118 0 0 206 -161 0zm324 0l-154 -273 176 -22 171 295 -193 0zm-163 -329l95 0c15,0 27,-3 38,-9 10,-6 17,-14 23,-25 5,-11 8,-23 8,-38 0,-14 -3,-26 -9,-36 -5,-10 -14,-18 -25,-23 -11,-5 -25,-8 -42,-8l-88 0 0 139zm438 520l0 -652 150 0 8 102 -31 -8c4,-20 13,-37 29,-53 16,-15 36,-28 59,-37 24,-9 50,-14 77,-14 39,0 74,10 104,31 30,20 53,49 71,84 17,36 26,78 26,125 0,46 -9,87 -26,123 -18,37 -42,65 -72,85 -31,21 -66,31 -105,31 -26,0 -51,-5 -74,-14 -24,-10 -43,-23 -59,-39 -16,-17 -26,-35 -31,-56l37 -12 0 304 -163 0zm247 -315c18,0 34,-5 47,-13 14,-9 24,-21 31,-37 6,-16 10,-35 10,-57 0,-22 -4,-42 -10,-58 -7,-15 -17,-28 -31,-36 -13,-9 -29,-13 -47,-13 -19,0 -35,4 -48,12 -13,9 -23,21 -30,37 -7,16 -11,36 -11,58 0,22 4,41 11,57 7,16 17,28 30,37 13,8 29,13 48,13z"/>
  </g>
 </g>
</svg>
