<?xml version="1.0" encoding="UTF-8"?>
<!DOCTYPE svg PUBLIC "-//W3C//DTD SVG 1.1//EN" "http://www.w3.org/Graphics/SVG/1.1/DTD/svg11.dtd">
<!-- Creator: CorelDRAW X7 -->
<svg xmlns="http://www.w3.org/2000/svg" xml:space="preserve" width="1.28714in" height="1.42582in" version="1.1" style="shape-rendering:geometricPrecision; text-rendering:geometricPrecision; image-rendering:optimizeQuality; fill-rule:evenodd; clip-rule:evenodd"
viewBox="0 0 566 627"
 xmlns:xlink="http://www.w3.org/1999/xlink">
 <defs>
  <style type="text/css">
   <![CDATA[
    .fil0 {fill:black}
   ]]>
  </style>
 </defs>
 <g id="Layer_x0020_1">
  <metadata id="CorelCorpID_0Corel-Layer"/>
  <g id="_3028766816656">
   <path class="fil0" d="M230 234c-1,-6 -5,-12 -7,-17 -19,-36 -15,-61 -41,-80 -26,-19 -60,-18 -82,5 -22,22 -55,96 -63,121 -11,31 -20,62 -26,97 -10,55 -11,83 -11,140 0,21 19,16 40,16 -3,5 -11,89 -11,100 0,14 33,10 46,10 18,0 18,-14 21,-30l9 -43c1,0 1,0 1,1l17 51c6,19 13,14 56,14 21,0 10,-27 8,-35l-16 -68c22,-2 10,-27 6,-60 -4,-50 -7,-109 2,-160 2,-13 4,-1 23,17 9,9 12,4 12,22 0,13 1,20 1,32 0,7 1,9 2,15l1 49c0,46 1,84 -5,130 -2,12 -10,45 -8,49 1,5 6,9 12,9 68,0 56,9 67,-55l10 -63c0,0 0,-1 0,-1 8,33 17,59 24,96 1,7 2,20 6,24 6,10 30,3 48,0 26,-4 16,-19 12,-37 -2,-10 -3,-16 -5,-25 -8,-34 -29,-123 -29,-153 0,-50 3,-98 25,-141 4,-8 13,-23 20,-27 6,9 16,20 22,29l26 27c17,18 37,34 59,46 -1,6 -3,9 -3,16l0 251c0,13 27,26 27,-9 -1,-79 1,-159 0,-238 0,-9 -1,-13 7,-13 14,0 -5,34 21,34 14,0 11,-17 11,-26 0,-11 -3,-19 -10,-24 18,-33 -8,-45 -37,-74l-44 -54c-21,-30 -22,-61 -64,-82 -36,-18 -78,-15 -109,11 -14,12 -7,6 -16,16 -18,19 -32,41 -44,65 -4,7 -7,19 -11,22z"/>
   <path class="fil0" d="M482 143c18,0 33,-6 46,-16 46,-38 28,-104 -16,-121 -61,-24 -118,33 -94,93 9,22 35,44 64,44z"/>
   <path class="fil0" d="M158 75c0,9 4,21 7,28 20,49 95,56 123,1 14,-30 5,-63 -22,-84 -26,-19 -65,-16 -87,7 -12,11 -21,31 -21,48z"/>
  </g>
 </g>
</svg>
