<?xml version="1.0" encoding="UTF-8"?>
<!DOCTYPE svg PUBLIC "-//W3C//DTD SVG 1.1//EN" "http://www.w3.org/Graphics/SVG/1.1/DTD/svg11.dtd">
<!-- Creator: CorelDRAW X7 -->
<svg xmlns="http://www.w3.org/2000/svg" xml:space="preserve" width="7.14291in" height="6.55314in" version="1.1" style="shape-rendering:geometricPrecision; text-rendering:geometricPrecision; image-rendering:optimizeQuality; fill-rule:evenodd; clip-rule:evenodd"
viewBox="0 0 10220 9376"
 xmlns:xlink="http://www.w3.org/1999/xlink">
 <defs>
  <style type="text/css">
   <![CDATA[
    .fil0 {fill:#0F1F3C}
    .fil1 {fill:#0F1F3C;fill-rule:nonzero}
   ]]>
  </style>
 </defs>
 <g id="Layer_x0020_1">
  <metadata id="CorelCorpID_0Corel-Layer"/>
  <path class="fil0" d="M7665 0l-2555 2942 1471 0 0 3570c0,862 -343,1689 -953,2299l-131 131c1796,0 3252,-1455 3252,-3251l0 -2749 1471 0 -2555 -2942z"/>
  <path class="fil0" d="M2981 3414c-1646,0 -2981,1335 -2981,2981 0,1646 1335,2981 2981,2981 1646,0 2980,-1335 2980,-2981 0,-1646 -1334,-2981 -2980,-2981zm0 5110c-1174,0 -2129,-955 -2129,-2129 0,-1174 955,-2129 2129,-2129 1174,0 2129,955 2129,2129 0,1174 -955,2129 -2129,2129z"/>
  <path class="fil0" d="M852 2136l3406 0 0 852 -3406 -1 0 -851zm0 -1281l4684 0 0 852 -4684 0 0 -852z"/>
  <path class="fil1" d="M1524 7070l0 -1807 834 0c122,0 231,25 328,75 96,50 171,118 225,204 55,86 82,185 82,297 0,120 -27,227 -82,320 -54,93 -129,165 -225,218 -97,52 -206,78 -328,78l-354 0 0 615 -480 0zm968 0l-459 -816 524 -64 511 880 -576 0zm-488 -981l284 0c45,0 82,-9 112,-27 31,-18 54,-43 70,-75 16,-32 25,-69 25,-112 0,-41 -9,-77 -26,-107 -17,-30 -43,-54 -76,-70 -34,-16 -76,-24 -125,-24l-264 0 0 415zm1306 1548l0 -1943 449 0 23 305 -93 -24c11,-58 40,-110 87,-157 47,-46 106,-83 177,-111 70,-27 147,-41 229,-41 116,0 218,30 307,91 90,62 160,145 212,252 52,107 77,231 77,372 0,137 -25,260 -77,367 -52,108 -123,192 -214,253 -91,61 -195,92 -312,92 -78,0 -151,-14 -221,-43 -70,-28 -128,-67 -176,-116 -47,-49 -77,-104 -91,-166l108 -36 0 905 -485 0zm736 -939c55,0 102,-13 141,-39 40,-25 70,-62 91,-109 20,-48 31,-104 31,-169 0,-67 -11,-125 -31,-172 -21,-47 -51,-84 -91,-110 -39,-25 -86,-38 -141,-38 -56,0 -103,12 -142,37 -40,25 -70,62 -91,110 -20,48 -31,106 -31,173 0,65 11,121 31,169 21,47 51,84 91,109 39,26 86,39 142,39z"/>
 </g>
</svg>
