<?xml version="1.0" encoding="UTF-8"?>
<!DOCTYPE svg PUBLIC "-//W3C//DTD SVG 1.1//EN" "http://www.w3.org/Graphics/SVG/1.1/DTD/svg11.dtd">
<!-- Creator: CorelDRAW X7 -->
<svg xmlns="http://www.w3.org/2000/svg" xml:space="preserve" width="1.42017in" height="1.70666in" version="1.1" style="shape-rendering:geometricPrecision; text-rendering:geometricPrecision; image-rendering:optimizeQuality; fill-rule:evenodd; clip-rule:evenodd"
viewBox="0 0 1907 2292"
 xmlns:xlink="http://www.w3.org/1999/xlink">
 <defs>
  <style type="text/css">
   <![CDATA[
    .fil0 {fill:black}
   ]]>
  </style>
 </defs>
 <g id="Layer_x0020_1">
  <metadata id="CorelCorpID_0Corel-Layer"/>
  <g id="_3028766538128">
   <path class="fil0" d="M398 895l0 -170 1034 0c0,191 19,314 -95,473 -99,137 -254,208 -428,208 -284,0 -511,-226 -511,-511zm491 -895l78 0c64,4 127,16 185,38 99,38 132,62 208,124 110,89 208,268 220,411 41,0 260,-7 288,8 50,27 52,97 6,129 -36,25 -230,15 -289,15l0 193c0,301 -236,571 -535,624 -117,21 -181,21 -297,-3 -117,-25 -234,-97 -318,-179l-39 -46c-44,-56 -64,-85 -95,-156 -68,-159 -55,-306 -55,-482 0,-109 21,-204 55,-281 20,-44 34,-69 59,-107 26,-38 40,-55 70,-86 1,-1 2,-2 2,-2l92 -79c100,-71 232,-114 365,-121zm69 452c-15,0 -28,-8 -39,-10 -18,-4 -14,6 -46,6 -41,0 -72,-32 -72,-72 0,-47 77,-112 103,-112 75,0 126,83 126,108 0,31 -16,59 -41,71 -4,2 -26,9 -31,9z"/>
   <path class="fil0" d="M0 2175c0,37 -5,117 72,117l1696 0c28,0 63,-35 63,-63 0,-113 -2,-179 -54,-282 -63,-125 -139,-201 -264,-264 -83,-42 -150,-54 -251,-54 -67,0 -57,99 -58,116 -13,126 -135,251 -286,251 -148,0 -264,-107 -288,-245 -3,-22 6,-122 -57,-122 -101,0 -169,11 -258,55 -182,91 -315,284 -315,491z"/>
   <path class="fil0" d="M774 1688c0,49 2,80 39,117 96,95 248,24 248,-100 0,-37 -22,-76 -58,-76l-175 0c-25,0 -54,33 -54,59z"/>
   <path class="fil0" d="M1021 886c0,66 14,99 85,99 62,0 89,-98 48,-147 -45,-54 -133,-22 -133,48z"/>
   <path class="fil0" d="M663 877l0 45c0,28 34,63 62,63l23 0c89,0 88,-175 -9,-175 -37,0 -76,33 -76,67z"/>
  </g>
 </g>
</svg>
