<?xml version="1.0" encoding="UTF-8"?>
<!DOCTYPE svg PUBLIC "-//W3C//DTD SVG 1.1//EN" "http://www.w3.org/Graphics/SVG/1.1/DTD/svg11.dtd">
<!-- Creator: CorelDRAW X7 -->
<svg xmlns="http://www.w3.org/2000/svg" xml:space="preserve" width="2.33009in" height="4.42864in" version="1.1" style="shape-rendering:geometricPrecision; text-rendering:geometricPrecision; image-rendering:optimizeQuality; fill-rule:evenodd; clip-rule:evenodd"
viewBox="0 0 345 655"
 xmlns:xlink="http://www.w3.org/1999/xlink">
 <defs>
  <style type="text/css">
   <![CDATA[
    .str0 {stroke:black;stroke-width:1.0275}
    .fil0 {fill:black}
   ]]>
  </style>
 </defs>
 <g id="Layer_x0020_1">
  <metadata id="CorelCorpID_0Corel-Layer"/>
  <path class="fil0 str0" d="M59 25c0,0 9,1 14,-2 5,-3 9,-5 14,-6 4,-1 6,-3 9,-3 4,0 18,4 21,3 3,-1 30,-13 32,-14 2,-2 7,-5 9,0 1,5 1,7 3,10 1,2 3,5 1,10 -1,5 -8,22 -13,29 -4,6 -12,18 -10,25 4,14 2,18 12,30 2,3 7,10 7,15 1,4 1,15 1,18 0,3 7,7 9,9 1,3 1,6 7,8 5,2 8,6 8,7 1,2 7,9 9,11 1,1 8,13 11,17 3,4 5,11 8,15 3,3 11,13 12,18 2,5 6,9 8,11 1,2 8,14 9,18 1,3 5,11 6,18 1,6 2,8 5,11 2,4 4,4 8,12 3,7 6,10 8,16 2,5 3,8 6,12 3,4 5,4 7,8 2,3 2,4 6,4 4,0 4,1 9,5 6,4 8,4 9,11 1,7 -1,15 2,14 3,0 8,-7 10,-7 2,0 6,4 8,7 2,2 7,15 9,18 2,4 2,5 2,8 0,2 2,5 4,8 3,3 7,16 4,21 -3,5 -6,5 -2,13 3,8 4,8 1,13 -3,5 -14,23 -17,24 -3,2 -5,4 -5,6 0,1 -2,2 -3,3 -1,1 -3,4 -4,6 -1,3 -2,4 -6,5 -3,0 -6,4 -6,7 0,2 1,5 1,7 0,2 0,3 4,4 4,1 4,0 5,0 1,0 4,10 7,12 4,1 5,0 7,-1 2,-1 4,-4 5,2 1,5 0,8 -1,10 -2,1 -2,1 -2,4 0,3 0,4 -2,5 -14,4 1,20 -7,18 -6,-1 -11,-3 -14,2 -2,5 -7,15 -13,16 -7,1 -9,-1 -11,-2 -1,0 -13,3 -15,6 -2,3 -4,6 -6,1 -1,-5 1,-10 -3,-7 -4,3 -9,4 -15,3 -6,-1 -19,-4 -20,1 0,5 3,5 0,8 -3,2 -5,3 -8,3 -4,0 -7,2 -9,4 -1,3 -5,2 -5,3 -1,0 -6,4 -7,8 -1,4 0,5 -3,5 -3,0 -6,-2 -7,3 0,5 2,12 -1,16 -4,5 -4,7 -4,9 1,2 -4,3 -7,5 -2,2 -4,6 -6,7 -1,1 -2,2 -4,1 -2,-1 -3,-2 -4,0 -2,2 -6,5 -6,5 0,0 2,-4 1,-6 -1,-2 -3,-1 -1,-7 3,-6 3,-7 3,-10 0,-3 1,-6 -1,-9 -1,-2 -3,-3 -3,-11 0,-8 0,-25 -1,-26 -1,-1 -12,-24 -13,-29 0,-5 1,-16 -1,-21 -2,-6 -5,-11 -3,-16 2,-5 1,-7 -1,-6 -1,2 -3,4 -2,1 1,-3 2,-6 3,-17 0,-10 -1,-11 3,-18 3,-6 7,-11 8,-16 1,-4 4,-17 2,-18 -1,-1 -6,-9 -6,-22 0,-12 2,-13 -5,-16 -6,-3 -17,-5 -20,-2 -3,3 -3,5 -8,7 -5,2 -7,3 -7,5 0,3 2,9 -4,9 -5,0 -8,-6 -9,-7 -2,-2 -3,-3 -4,-1 -1,3 0,14 -9,11 -10,-3 -18,-7 -17,-10 0,-2 3,-3 4,-4 2,-2 3,-4 1,-6 -2,-1 -5,-3 -5,-5 0,-3 -1,-7 -4,-12 -2,-6 -4,-14 -3,-19 1,-5 7,-20 3,-29 -4,-8 -9,-16 -22,-19 -13,-3 -16,-2 -20,-7 -3,-4 -2,-10 1,-11 2,-1 7,3 10,-3 3,-6 4,-22 6,-29 2,-6 5,-14 -2,-20 -7,-6 -10,-5 -10,-12 -1,-6 -1,-9 -2,-11 -2,-3 -9,-16 -9,-19 0,-3 0,-6 -1,-7 -1,-2 -3,-3 0,-8 4,-6 12,-8 18,-20 7,-13 11,-38 17,-42 6,-4 18,-13 19,-17 1,-9 7,-20 7,-21 0,-2 -3,-9 -2,-11 2,-3 4,-7 3,-11 0,-5 -3,-14 -3,-19 0,-4 0,-21 -2,-33z"/>
 </g>
</svg>
